%TF.GenerationSoftware,KiCad,Pcbnew,9.0.6*%
%TF.CreationDate,2025-11-24T17:12:20+00:00*%
%TF.ProjectId,power-pcb,706f7765-722d-4706-9362-2e6b69636164,rev?*%
%TF.SameCoordinates,Original*%
%TF.FileFunction,Legend,Top*%
%TF.FilePolarity,Positive*%
%FSLAX46Y46*%
G04 Gerber Fmt 4.6, Leading zero omitted, Abs format (unit mm)*
G04 Created by KiCad (PCBNEW 9.0.6) date 2025-11-24 17:12:20*
%MOMM*%
%LPD*%
G01*
G04 APERTURE LIST*
G04 Aperture macros list*
%AMRoundRect*
0 Rectangle with rounded corners*
0 $1 Rounding radius*
0 $2 $3 $4 $5 $6 $7 $8 $9 X,Y pos of 4 corners*
0 Add a 4 corners polygon primitive as box body*
4,1,4,$2,$3,$4,$5,$6,$7,$8,$9,$2,$3,0*
0 Add four circle primitives for the rounded corners*
1,1,$1+$1,$2,$3*
1,1,$1+$1,$4,$5*
1,1,$1+$1,$6,$7*
1,1,$1+$1,$8,$9*
0 Add four rect primitives between the rounded corners*
20,1,$1+$1,$2,$3,$4,$5,0*
20,1,$1+$1,$4,$5,$6,$7,0*
20,1,$1+$1,$6,$7,$8,$9,0*
20,1,$1+$1,$8,$9,$2,$3,0*%
G04 Aperture macros list end*
%ADD10C,0.150000*%
%ADD11RoundRect,0.102000X2.250000X-1.375000X2.250000X1.375000X-2.250000X1.375000X-2.250000X-1.375000X0*%
%ADD12RoundRect,0.102000X-2.250000X1.375000X-2.250000X-1.375000X2.250000X-1.375000X2.250000X1.375000X0*%
%ADD13C,1.448000*%
G04 APERTURE END LIST*
D10*
X119238095Y-91052438D02*
X119142857Y-91004819D01*
X119142857Y-91004819D02*
X119000000Y-91004819D01*
X119000000Y-91004819D02*
X118857143Y-91052438D01*
X118857143Y-91052438D02*
X118761905Y-91147676D01*
X118761905Y-91147676D02*
X118714286Y-91242914D01*
X118714286Y-91242914D02*
X118666667Y-91433390D01*
X118666667Y-91433390D02*
X118666667Y-91576247D01*
X118666667Y-91576247D02*
X118714286Y-91766723D01*
X118714286Y-91766723D02*
X118761905Y-91861961D01*
X118761905Y-91861961D02*
X118857143Y-91957200D01*
X118857143Y-91957200D02*
X119000000Y-92004819D01*
X119000000Y-92004819D02*
X119095238Y-92004819D01*
X119095238Y-92004819D02*
X119238095Y-91957200D01*
X119238095Y-91957200D02*
X119285714Y-91909580D01*
X119285714Y-91909580D02*
X119285714Y-91576247D01*
X119285714Y-91576247D02*
X119095238Y-91576247D01*
X119714286Y-92004819D02*
X119714286Y-91004819D01*
X119714286Y-91004819D02*
X120285714Y-92004819D01*
X120285714Y-92004819D02*
X120285714Y-91004819D01*
X120761905Y-92004819D02*
X120761905Y-91004819D01*
X120761905Y-91004819D02*
X121000000Y-91004819D01*
X121000000Y-91004819D02*
X121142857Y-91052438D01*
X121142857Y-91052438D02*
X121238095Y-91147676D01*
X121238095Y-91147676D02*
X121285714Y-91242914D01*
X121285714Y-91242914D02*
X121333333Y-91433390D01*
X121333333Y-91433390D02*
X121333333Y-91576247D01*
X121333333Y-91576247D02*
X121285714Y-91766723D01*
X121285714Y-91766723D02*
X121238095Y-91861961D01*
X121238095Y-91861961D02*
X121142857Y-91957200D01*
X121142857Y-91957200D02*
X121000000Y-92004819D01*
X121000000Y-92004819D02*
X120761905Y-92004819D01*
X118166667Y-87829819D02*
X118500000Y-88829819D01*
X118500000Y-88829819D02*
X118833333Y-87829819D01*
X119500000Y-88306009D02*
X119642857Y-88353628D01*
X119642857Y-88353628D02*
X119690476Y-88401247D01*
X119690476Y-88401247D02*
X119738095Y-88496485D01*
X119738095Y-88496485D02*
X119738095Y-88639342D01*
X119738095Y-88639342D02*
X119690476Y-88734580D01*
X119690476Y-88734580D02*
X119642857Y-88782200D01*
X119642857Y-88782200D02*
X119547619Y-88829819D01*
X119547619Y-88829819D02*
X119166667Y-88829819D01*
X119166667Y-88829819D02*
X119166667Y-87829819D01*
X119166667Y-87829819D02*
X119500000Y-87829819D01*
X119500000Y-87829819D02*
X119595238Y-87877438D01*
X119595238Y-87877438D02*
X119642857Y-87925057D01*
X119642857Y-87925057D02*
X119690476Y-88020295D01*
X119690476Y-88020295D02*
X119690476Y-88115533D01*
X119690476Y-88115533D02*
X119642857Y-88210771D01*
X119642857Y-88210771D02*
X119595238Y-88258390D01*
X119595238Y-88258390D02*
X119500000Y-88306009D01*
X119500000Y-88306009D02*
X119166667Y-88306009D01*
X120166667Y-87829819D02*
X120166667Y-88639342D01*
X120166667Y-88639342D02*
X120214286Y-88734580D01*
X120214286Y-88734580D02*
X120261905Y-88782200D01*
X120261905Y-88782200D02*
X120357143Y-88829819D01*
X120357143Y-88829819D02*
X120547619Y-88829819D01*
X120547619Y-88829819D02*
X120642857Y-88782200D01*
X120642857Y-88782200D02*
X120690476Y-88734580D01*
X120690476Y-88734580D02*
X120738095Y-88639342D01*
X120738095Y-88639342D02*
X120738095Y-87829819D01*
X121166667Y-88782200D02*
X121309524Y-88829819D01*
X121309524Y-88829819D02*
X121547619Y-88829819D01*
X121547619Y-88829819D02*
X121642857Y-88782200D01*
X121642857Y-88782200D02*
X121690476Y-88734580D01*
X121690476Y-88734580D02*
X121738095Y-88639342D01*
X121738095Y-88639342D02*
X121738095Y-88544104D01*
X121738095Y-88544104D02*
X121690476Y-88448866D01*
X121690476Y-88448866D02*
X121642857Y-88401247D01*
X121642857Y-88401247D02*
X121547619Y-88353628D01*
X121547619Y-88353628D02*
X121357143Y-88306009D01*
X121357143Y-88306009D02*
X121261905Y-88258390D01*
X121261905Y-88258390D02*
X121214286Y-88210771D01*
X121214286Y-88210771D02*
X121166667Y-88115533D01*
X121166667Y-88115533D02*
X121166667Y-88020295D01*
X121166667Y-88020295D02*
X121214286Y-87925057D01*
X121214286Y-87925057D02*
X121261905Y-87877438D01*
X121261905Y-87877438D02*
X121357143Y-87829819D01*
X121357143Y-87829819D02*
X121595238Y-87829819D01*
X121595238Y-87829819D02*
X121738095Y-87877438D01*
X106513333Y-74613819D02*
X106513333Y-73613819D01*
X106513333Y-73613819D02*
X107084761Y-74613819D01*
X107084761Y-74613819D02*
X107084761Y-73613819D01*
X107418095Y-73613819D02*
X107989523Y-73613819D01*
X107703809Y-74613819D02*
X107703809Y-73613819D01*
X108894285Y-74518580D02*
X108846666Y-74566200D01*
X108846666Y-74566200D02*
X108703809Y-74613819D01*
X108703809Y-74613819D02*
X108608571Y-74613819D01*
X108608571Y-74613819D02*
X108465714Y-74566200D01*
X108465714Y-74566200D02*
X108370476Y-74470961D01*
X108370476Y-74470961D02*
X108322857Y-74375723D01*
X108322857Y-74375723D02*
X108275238Y-74185247D01*
X108275238Y-74185247D02*
X108275238Y-74042390D01*
X108275238Y-74042390D02*
X108322857Y-73851914D01*
X108322857Y-73851914D02*
X108370476Y-73756676D01*
X108370476Y-73756676D02*
X108465714Y-73661438D01*
X108465714Y-73661438D02*
X108608571Y-73613819D01*
X108608571Y-73613819D02*
X108703809Y-73613819D01*
X108703809Y-73613819D02*
X108846666Y-73661438D01*
X108846666Y-73661438D02*
X108894285Y-73709057D01*
%LPC*%
D11*
%TO.C,GND*%
X128254000Y-91550000D03*
%TD*%
%TO.C,VBUS*%
X128254000Y-88375000D03*
%TD*%
D12*
%TO.C,NTC*%
X107680000Y-71659000D03*
%TD*%
D13*
%TO.C,REF\u002A\u002A*%
X106500000Y-75500000D03*
%TD*%
%TO.C,REF\u002A\u002A*%
X124500000Y-89972500D03*
%TD*%
%LPD*%
M02*
