%TF.GenerationSoftware,KiCad,Pcbnew,9.0.6*%
%TF.CreationDate,2025-11-24T17:12:20+00:00*%
%TF.ProjectId,power-pcb,706f7765-722d-4706-9362-2e6b69636164,rev?*%
%TF.SameCoordinates,Original*%
%TF.FileFunction,Legend,Bot*%
%TF.FilePolarity,Positive*%
%FSLAX46Y46*%
G04 Gerber Fmt 4.6, Leading zero omitted, Abs format (unit mm)*
G04 Created by KiCad (PCBNEW 9.0.6) date 2025-11-24 17:12:20*
%MOMM*%
%LPD*%
G01*
G04 APERTURE LIST*
G04 Aperture macros list*
%AMRoundRect*
0 Rectangle with rounded corners*
0 $1 Rounding radius*
0 $2 $3 $4 $5 $6 $7 $8 $9 X,Y pos of 4 corners*
0 Add a 4 corners polygon primitive as box body*
4,1,4,$2,$3,$4,$5,$6,$7,$8,$9,$2,$3,0*
0 Add four circle primitives for the rounded corners*
1,1,$1+$1,$2,$3*
1,1,$1+$1,$4,$5*
1,1,$1+$1,$6,$7*
1,1,$1+$1,$8,$9*
0 Add four rect primitives between the rounded corners*
20,1,$1+$1,$2,$3,$4,$5,0*
20,1,$1+$1,$4,$5,$6,$7,0*
20,1,$1+$1,$6,$7,$8,$9,0*
20,1,$1+$1,$8,$9,$2,$3,0*%
G04 Aperture macros list end*
%ADD10C,0.150000*%
%ADD11C,0.400000*%
%ADD12C,1.448000*%
%ADD13RoundRect,0.102000X-1.750000X0.500000X-1.750000X-0.500000X1.750000X-0.500000X1.750000X0.500000X0*%
G04 APERTURE END LIST*
D10*
X122758458Y-89703152D02*
X122520363Y-90369819D01*
X122520363Y-90369819D02*
X122282268Y-89703152D01*
X121948934Y-89465057D02*
X121901315Y-89417438D01*
X121901315Y-89417438D02*
X121806077Y-89369819D01*
X121806077Y-89369819D02*
X121567982Y-89369819D01*
X121567982Y-89369819D02*
X121472744Y-89417438D01*
X121472744Y-89417438D02*
X121425125Y-89465057D01*
X121425125Y-89465057D02*
X121377506Y-89560295D01*
X121377506Y-89560295D02*
X121377506Y-89655533D01*
X121377506Y-89655533D02*
X121425125Y-89798390D01*
X121425125Y-89798390D02*
X121996553Y-90369819D01*
X121996553Y-90369819D02*
X121377506Y-90369819D01*
X120234648Y-89465057D02*
X120187029Y-89417438D01*
X120187029Y-89417438D02*
X120091791Y-89369819D01*
X120091791Y-89369819D02*
X119853696Y-89369819D01*
X119853696Y-89369819D02*
X119758458Y-89417438D01*
X119758458Y-89417438D02*
X119710839Y-89465057D01*
X119710839Y-89465057D02*
X119663220Y-89560295D01*
X119663220Y-89560295D02*
X119663220Y-89655533D01*
X119663220Y-89655533D02*
X119710839Y-89798390D01*
X119710839Y-89798390D02*
X120282267Y-90369819D01*
X120282267Y-90369819D02*
X119663220Y-90369819D01*
X119044172Y-89369819D02*
X118948934Y-89369819D01*
X118948934Y-89369819D02*
X118853696Y-89417438D01*
X118853696Y-89417438D02*
X118806077Y-89465057D01*
X118806077Y-89465057D02*
X118758458Y-89560295D01*
X118758458Y-89560295D02*
X118710839Y-89750771D01*
X118710839Y-89750771D02*
X118710839Y-89988866D01*
X118710839Y-89988866D02*
X118758458Y-90179342D01*
X118758458Y-90179342D02*
X118806077Y-90274580D01*
X118806077Y-90274580D02*
X118853696Y-90322200D01*
X118853696Y-90322200D02*
X118948934Y-90369819D01*
X118948934Y-90369819D02*
X119044172Y-90369819D01*
X119044172Y-90369819D02*
X119139410Y-90322200D01*
X119139410Y-90322200D02*
X119187029Y-90274580D01*
X119187029Y-90274580D02*
X119234648Y-90179342D01*
X119234648Y-90179342D02*
X119282267Y-89988866D01*
X119282267Y-89988866D02*
X119282267Y-89750771D01*
X119282267Y-89750771D02*
X119234648Y-89560295D01*
X119234648Y-89560295D02*
X119187029Y-89465057D01*
X119187029Y-89465057D02*
X119139410Y-89417438D01*
X119139410Y-89417438D02*
X119044172Y-89369819D01*
X118329886Y-89465057D02*
X118282267Y-89417438D01*
X118282267Y-89417438D02*
X118187029Y-89369819D01*
X118187029Y-89369819D02*
X117948934Y-89369819D01*
X117948934Y-89369819D02*
X117853696Y-89417438D01*
X117853696Y-89417438D02*
X117806077Y-89465057D01*
X117806077Y-89465057D02*
X117758458Y-89560295D01*
X117758458Y-89560295D02*
X117758458Y-89655533D01*
X117758458Y-89655533D02*
X117806077Y-89798390D01*
X117806077Y-89798390D02*
X118377505Y-90369819D01*
X118377505Y-90369819D02*
X117758458Y-90369819D01*
X116853696Y-89369819D02*
X117329886Y-89369819D01*
X117329886Y-89369819D02*
X117377505Y-89846009D01*
X117377505Y-89846009D02*
X117329886Y-89798390D01*
X117329886Y-89798390D02*
X117234648Y-89750771D01*
X117234648Y-89750771D02*
X116996553Y-89750771D01*
X116996553Y-89750771D02*
X116901315Y-89798390D01*
X116901315Y-89798390D02*
X116853696Y-89846009D01*
X116853696Y-89846009D02*
X116806077Y-89941247D01*
X116806077Y-89941247D02*
X116806077Y-90179342D01*
X116806077Y-90179342D02*
X116853696Y-90274580D01*
X116853696Y-90274580D02*
X116901315Y-90322200D01*
X116901315Y-90322200D02*
X116996553Y-90369819D01*
X116996553Y-90369819D02*
X117234648Y-90369819D01*
X117234648Y-90369819D02*
X117329886Y-90322200D01*
X117329886Y-90322200D02*
X117377505Y-90274580D01*
X116377505Y-89988866D02*
X115615601Y-89988866D01*
X114948934Y-89369819D02*
X114853696Y-89369819D01*
X114853696Y-89369819D02*
X114758458Y-89417438D01*
X114758458Y-89417438D02*
X114710839Y-89465057D01*
X114710839Y-89465057D02*
X114663220Y-89560295D01*
X114663220Y-89560295D02*
X114615601Y-89750771D01*
X114615601Y-89750771D02*
X114615601Y-89988866D01*
X114615601Y-89988866D02*
X114663220Y-90179342D01*
X114663220Y-90179342D02*
X114710839Y-90274580D01*
X114710839Y-90274580D02*
X114758458Y-90322200D01*
X114758458Y-90322200D02*
X114853696Y-90369819D01*
X114853696Y-90369819D02*
X114948934Y-90369819D01*
X114948934Y-90369819D02*
X115044172Y-90322200D01*
X115044172Y-90322200D02*
X115091791Y-90274580D01*
X115091791Y-90274580D02*
X115139410Y-90179342D01*
X115139410Y-90179342D02*
X115187029Y-89988866D01*
X115187029Y-89988866D02*
X115187029Y-89750771D01*
X115187029Y-89750771D02*
X115139410Y-89560295D01*
X115139410Y-89560295D02*
X115091791Y-89465057D01*
X115091791Y-89465057D02*
X115044172Y-89417438D01*
X115044172Y-89417438D02*
X114948934Y-89369819D01*
X114282267Y-89369819D02*
X113663220Y-89369819D01*
X113663220Y-89369819D02*
X113996553Y-89750771D01*
X113996553Y-89750771D02*
X113853696Y-89750771D01*
X113853696Y-89750771D02*
X113758458Y-89798390D01*
X113758458Y-89798390D02*
X113710839Y-89846009D01*
X113710839Y-89846009D02*
X113663220Y-89941247D01*
X113663220Y-89941247D02*
X113663220Y-90179342D01*
X113663220Y-90179342D02*
X113710839Y-90274580D01*
X113710839Y-90274580D02*
X113758458Y-90322200D01*
X113758458Y-90322200D02*
X113853696Y-90369819D01*
X113853696Y-90369819D02*
X114139410Y-90369819D01*
X114139410Y-90369819D02*
X114234648Y-90322200D01*
X114234648Y-90322200D02*
X114282267Y-90274580D01*
X113234648Y-89988866D02*
X112472744Y-89988866D01*
X111472744Y-90369819D02*
X112044172Y-90369819D01*
X111758458Y-90369819D02*
X111758458Y-89369819D01*
X111758458Y-89369819D02*
X111853696Y-89512676D01*
X111853696Y-89512676D02*
X111948934Y-89607914D01*
X111948934Y-89607914D02*
X112044172Y-89655533D01*
X110615601Y-89703152D02*
X110615601Y-90369819D01*
X110853696Y-89322200D02*
X111091791Y-90036485D01*
X111091791Y-90036485D02*
X110472744Y-90036485D01*
D11*
%TO.C,J1*%
X110800000Y-90962500D02*
G75*
G02*
X110400000Y-90962500I-200000J0D01*
G01*
X110400000Y-90962500D02*
G75*
G02*
X110800000Y-90962500I200000J0D01*
G01*
%TD*%
%LPC*%
D12*
%TO.C,REF\u002A\u002A*%
X106500000Y-75500000D03*
%TD*%
%TO.C,REF\u002A\u002A*%
X124500000Y-89972500D03*
%TD*%
D13*
%TO.C,J1*%
X108000000Y-90962500D03*
X108000000Y-88962500D03*
X108000000Y-86962500D03*
%TD*%
%LPD*%
M02*
